<?xml version="1.0" encoding="UTF-8"?>
<svg width="300" height="36" version="1.1" viewBox="0 0 79.375 9.525" xmlns="http://www.w3.org/2000/svg" xmlns:cc="http://creativecommons.org/ns#" xmlns:dc="http://purl.org/dc/elements/1.1/" xmlns:rdf="http://www.w3.org/1999/02/22-rdf-syntax-ns#">
<metadata>
<rdf:RDF>
<cc:Work rdf:about="">
<dc:format>image/svg+xml</dc:format>
<dc:type rdf:resource="http://purl.org/dc/dcmitype/StillImage"/>
<dc:title/>
</cc:Work>
</rdf:RDF>
</metadata>
<g transform="translate(-35.983 -279.01)">
<g transform="matrix(.26458 0 0 .26458 50.014 249.9)" fill="#333" aria-label="Korea">
<path d="m129.43 125.48h1.512q0.912 0 1.512-0.24 0.6-0.264 1.032-0.816l9.576-12.12q0.6-0.768 1.248-1.056 0.672-0.312 1.68-0.312h5.568l-11.688 14.424q-0.552 0.672-1.056 1.128t-1.08 0.744q0.792 0.288 1.416 0.816 0.648 0.528 1.248 1.344l12.048 16.248h-5.712q-1.152 0-1.728-0.312-0.552-0.336-0.936-0.96l-9.816-12.816q-0.48-0.624-1.08-0.888-0.6-0.288-1.704-0.288h-2.04v15.264h-6.456v-34.728h6.456z"/>
<path d="m165.37 120.63q2.76 0 4.992 0.888 2.256 0.888 3.84 2.52t2.448 3.984 0.864 5.256q0 2.928-0.864 5.28t-2.448 4.008-3.84 2.544q-2.232 0.888-4.992 0.888t-5.016-0.888-3.864-2.544q-1.584-1.656-2.472-4.008-0.864-2.352-0.864-5.28 0-2.904 0.864-5.256 0.888-2.352 2.472-3.984 1.608-1.632 3.864-2.52t5.016-0.888zm0 20.808q3.072 0 4.536-2.064 1.488-2.064 1.488-6.048t-1.488-6.072q-1.464-2.088-4.536-2.088-3.12 0-4.608 2.112-1.488 2.088-1.488 6.048t1.488 6.048q1.488 2.064 4.608 2.064z"/>
<path d="m182.14 145.64v-24.624h3.48q0.912 0 1.272 0.336t0.48 1.152l0.36 2.976q1.32-2.28 3.096-3.6t3.984-1.32q1.824 0 3.024 0.84l-0.768 4.44q-0.072 0.432-0.312 0.624-0.24 0.168-0.648 0.168-0.36 0-0.984-0.168t-1.656-0.168q-1.848 0-3.168 1.032-1.32 1.008-2.232 2.976v15.336z"/>
<path d="m211.91 120.63q2.328 0 4.272 0.744 1.968 0.744 3.384 2.184 1.416 1.416 2.208 3.504 0.792 2.064 0.792 4.728 0 0.672-0.072 1.128-0.048 0.432-0.216 0.696-0.144 0.24-0.408 0.36-0.264 0.096-0.672 0.096h-15.216q0.264 3.792 2.04 5.568t4.704 1.776q1.44 0 2.472-0.336 1.056-0.336 1.824-0.744 0.792-0.408 1.368-0.744 0.6-0.336 1.152-0.336 0.36 0 0.624 0.144t0.456 0.408l1.728 2.16q-0.984 1.152-2.208 1.944-1.224 0.768-2.568 1.248-1.32 0.456-2.712 0.648-1.368 0.192-2.664 0.192-2.568 0-4.776-0.84-2.208-0.864-3.84-2.52-1.632-1.68-2.568-4.128-0.936-2.472-0.936-5.712 0-2.52 0.816-4.728 0.816-2.232 2.328-3.864 1.536-1.656 3.72-2.616 2.208-0.96 4.968-0.96zm0.12 4.248q-2.592 0-4.056 1.464t-1.872 4.152h11.136q0-1.152-0.312-2.16-0.312-1.032-0.96-1.8t-1.632-1.2q-0.984-0.456-2.304-0.456z"/>
<path d="m246.71 145.64h-2.664q-0.84 0-1.32-0.24-0.48-0.264-0.72-1.032l-0.528-1.752q-0.936 0.84-1.848 1.488-0.888 0.624-1.848 1.056t-2.04 0.648-2.4 0.216q-1.56 0-2.88-0.408-1.32-0.432-2.28-1.272-0.936-0.84-1.464-2.088t-0.528-2.904q0-1.392 0.72-2.736 0.744-1.368 2.448-2.448 1.704-1.104 4.536-1.824t7.032-0.816v-1.44q0-2.472-1.056-3.648-1.032-1.2-3.024-1.2-1.44 0-2.4 0.336t-1.68 0.768q-0.696 0.408-1.296 0.744t-1.32 0.336q-0.6 0-1.032-0.312t-0.696-0.768l-1.08-1.896q4.248-3.888 10.248-3.888 2.16 0 3.84 0.72 1.704 0.696 2.88 1.968 1.176 1.248 1.776 3 0.624 1.752 0.624 3.84zm-11.52-3.696q0.912 0 1.68-0.168t1.44-0.504q0.696-0.336 1.32-0.816 0.648-0.504 1.296-1.176v-4.152q-2.592 0.12-4.344 0.456-1.728 0.312-2.784 0.816t-1.512 1.176q-0.432 0.672-0.432 1.464 0 1.56 0.912 2.232 0.936 0.672 2.424 0.672z"/>
</g>
<g transform="matrix(.26458 0 0 .26458 3.5047 249.9)" fill="#333" aria-label="Elixir">
<path d="m144.64 110.94v5.136h-15.384v9.624h12.12v4.968h-12.12v9.816h15.384v5.16h-21.888v-34.704z"/>
<path d="m156.2 109.98v35.664h-5.928v-35.664z"/>
<path d="m169.23 121.02v24.624h-5.928v-24.624zm0.888-7.176q0 0.768-0.312 1.44t-0.84 1.176q-0.504 0.504-1.2 0.816-0.696 0.288-1.488 0.288-0.768 0-1.464-0.288-0.672-0.312-1.176-0.816t-0.816-1.176q-0.288-0.672-0.288-1.44 0-0.792 0.288-1.488 0.312-0.696 0.816-1.2t1.176-0.792q0.696-0.312 1.464-0.312 0.792 0 1.488 0.312 0.696 0.288 1.2 0.792 0.528 0.504 0.84 1.2t0.312 1.488z"/>
<path d="m181.78 132.94-8.088-11.928h5.712q0.648 0 0.96 0.192 0.312 0.168 0.552 0.576l5.16 8.232q0.12-0.408 0.288-0.816 0.192-0.408 0.456-0.816l4.152-6.48q0.288-0.456 0.6-0.672t0.768-0.216h5.448l-8.112 11.664 8.448 12.96h-5.712q-0.648 0-1.056-0.336-0.384-0.336-0.648-0.768l-5.232-8.568q-0.216 0.864-0.6 1.44l-4.608 7.128q-0.264 0.408-0.648 0.768-0.384 0.336-0.96 0.336h-5.304z"/>
<path d="m208.14 121.02v24.624h-5.928v-24.624zm0.888-7.176q0 0.768-0.312 1.44t-0.84 1.176q-0.504 0.504-1.2 0.816-0.696 0.288-1.488 0.288-0.768 0-1.464-0.288-0.672-0.312-1.176-0.816t-0.816-1.176q-0.288-0.672-0.288-1.44 0-0.792 0.288-1.488 0.312-0.696 0.816-1.2t1.176-0.792q0.696-0.312 1.464-0.312 0.792 0 1.488 0.312 0.696 0.288 1.2 0.792 0.528 0.504 0.84 1.2t0.312 1.488z"/>
<path d="m214.86 145.64v-24.624h3.48q0.912 0 1.272 0.336t0.48 1.152l0.36 2.976q1.32-2.28 3.096-3.6t3.984-1.32q1.824 0 3.024 0.84l-0.768 4.44q-0.072 0.432-0.312 0.624-0.24 0.168-0.648 0.168-0.36 0-0.984-0.168t-1.656-0.168q-1.848 0-3.168 1.032-1.32 1.008-2.232 2.976v15.336z"/>
</g>
<g transform="translate(3.7042)" fill="#ccc">
<rect x="65.088" y="279.01" width="1.5875" height="9.525" fill-opacity=".99634"/>
<path d="m68.262 279.01 4.7625 4.7625-4.7625 4.7625h1.8521l4.7625-4.7625-4.7625-4.7625z" fill-opacity=".94872"/>
</g>
</g>
</svg>
